<svg width="1000" height="1000" viewBox="0 0 1000 1000" fill="none" xmlns="http://www.w3.org/2000/svg">
<path d="M525.421 483.479L724.792 760.201C744.075 785.671 759.57 802.191 771.278 809.763C783.674 817.335 802.612 822.154 828.093 824.219V849H790.905C781.952 849 771.966 849 760.947 849C749.929 848.312 743.386 847.967 741.32 847.967C706.887 847.967 681.75 843.837 665.911 835.577C650.071 827.317 632.854 808.042 614.26 777.754L464.474 538.204C447.257 512.046 423.153 498.967 392.163 498.967C379.078 498.967 367.715 499.312 358.074 500V641.459C358.074 649.719 358.418 663.83 359.107 683.793L361.173 744.713C362.55 777.066 366.682 797.029 373.569 804.601C380.456 811.484 401.116 817.679 435.549 823.186L454.144 826.284V849L395.262 847.967C356.008 847.279 321.918 846.935 292.994 846.935C248.919 846.935 207.254 847.623 168 849V826.284L186.594 823.186C220.339 817.679 240.655 811.484 247.542 804.601C255.117 797.029 259.594 777.066 260.971 744.713L263.037 693.086L264.07 641.459V361.639C264.07 352.002 263.381 324.812 262.004 280.068C260.627 234.636 256.494 207.446 249.608 198.497C243.41 189.548 222.405 183.009 186.594 178.879L168 176.814V154.098C207.254 154.098 226.882 154.098 226.882 154.098C239.966 154.098 258.905 154.442 283.697 155.13L321.918 156.163C329.494 156.163 351.531 155.474 388.031 154.098C443.125 152.033 484.445 151 511.992 151C566.397 151 609.095 164.079 640.085 190.237C671.076 215.706 686.571 251.501 686.571 297.621C686.571 345.807 668.665 386.42 632.854 419.462C616.326 434.606 580.515 455.945 525.421 483.479ZM358.074 292.459V472.121C395.262 475.563 421.087 477.284 435.549 477.284C536.096 477.284 586.369 427.034 586.369 326.533C586.369 231.538 542.982 183.009 456.21 180.944L412.823 179.911C391.474 179.223 377.357 182.321 370.47 189.204C364.272 195.399 360.828 208.822 360.14 229.473L358.074 292.459Z" fill="white"/>
<path d="M771.085 531.879C787.614 531.879 801.731 537.73 813.439 549.433C825.146 561.135 831 575.246 831 591.767C831 608.288 825.146 622.399 813.439 634.101C801.731 645.803 787.614 651.654 771.085 651.654C754.557 651.654 740.44 645.803 728.732 634.101C717.025 622.399 711.171 608.288 711.171 591.767C711.171 575.246 717.025 561.135 728.732 549.433C740.44 537.73 754.557 531.879 771.085 531.879Z" fill="white"/>
</svg>
