<svg width="1000" height="1000" viewBox="0 0 1000 1000" fill="none" xmlns="http://www.w3.org/2000/svg">
<rect width="1000" height="1000" rx="130" fill="black"/>
<path fill-rule="evenodd" clip-rule="evenodd" d="M601.873 409.186V591.059H799.399C845.613 588.078 870.21 522.484 821.015 494.905C850.831 472.543 847.849 422.603 799.399 409.186H601.873ZM654.05 479.252V453.164H780.019C791.945 453.164 793.436 479.252 780.019 479.252H654.05ZM654.05 545.591V519.503H780.019C805.362 519.503 799.399 545.591 780.019 545.591H654.05Z" fill="white"/>
<path d="M390.374 407.695V455.4H217.247C212.828 455.4 209.247 458.981 209.247 463.4V470.507C209.247 474.925 212.828 478.507 217.247 478.507H357.578C423.165 478.507 424.656 591.805 357.578 591.805H163.033V546.336H342.869C347.287 546.336 350.869 542.755 350.869 538.336V531.229C350.869 526.811 347.287 523.229 342.869 523.229H209.247C127.252 523.229 136.939 407.695 209.247 407.695H390.374Z" fill="white"/>
<path d="M483.358 416.64H441.617V451.673H420.746V484.47H441.617V544.1C441.617 587.332 488.576 601.495 527.336 582.86L517.646 553.045C491.557 565.716 483.358 553.045 483.358 544.1V484.47H517.646V451.673H483.358V416.64Z" fill="white"/>
<path d="M540.752 591.059V546.336H588.456V591.059H540.752Z" fill="white"/>
</svg>
